<svg preserveAspectRatio="none" width="100%" height="100%" overflow="visible" style="display: block;" viewBox="0 0 11 11" fill="none" xmlns="http://www.w3.org/2000/svg">
<g id="Group 5">
<path id="Union" d="M1.1582 2.77734C1.79808 2.77734 2.31734 3.29666 2.31738 3.93652V9.2959C2.31738 9.9358 1.79811 10.4541 1.1582 10.4541C0.518504 10.4539 0 9.93565 0 9.2959V3.93652C4.73364e-05 3.29681 0.518533 2.77758 1.1582 2.77734ZM5.50488 0C6.14464 0 6.66284 0.518507 6.66309 1.1582V9.2959C6.66304 9.93576 6.14476 10.4541 5.50488 10.4541C4.86509 10.454 4.34672 9.93571 4.34668 9.2959V1.1582C4.34692 0.518564 4.86521 9.17643e-05 5.50488 0ZM9.85156 5.55566C10.4913 5.55577 11.0096 6.07419 11.0098 6.71387V9.2959C11.0097 9.93569 10.4913 10.454 9.85156 10.4541C9.21173 10.4541 8.69244 9.93573 8.69238 9.2959V6.71387C8.69257 6.07415 9.21181 5.55571 9.85156 5.55566Z" fill="var(--fill-0, white)"/>
</g>
</svg>
