<svg preserveAspectRatio="none" width="100%" height="100%" overflow="visible" style="display: block;" viewBox="0 0 9 9" fill="none" xmlns="http://www.w3.org/2000/svg">
<path id="Union" d="M2.75 5.25C3.30222 5.25002 3.74992 5.69779 3.75 6.25V8C3.75 8.55227 3.30227 8.99998 2.75 9H1C0.447715 9 0 8.55228 0 8V6.25C7.76076e-05 5.69778 0.447763 5.25 1 5.25H2.75ZM8 5.25C8.55224 5.25 8.99992 5.69778 9 6.25V8C9 8.55228 8.55228 9 8 9H6.25C5.69772 9 5.25 8.55228 5.25 8V6.25C5.25008 5.69778 5.69777 5.25 6.25 5.25H8ZM2.75 0C3.30227 1.33117e-05 3.75 0.447723 3.75 1V2.75C3.75 3.30228 3.30227 3.74999 2.75 3.75H1C0.447715 3.75 0 3.30228 0 2.75V1C0 0.447715 0.447715 0 1 0H2.75ZM8 0C8.55228 0 9 0.447715 9 1V2.75C9 3.30228 8.55228 3.75 8 3.75H6.25C5.69772 3.75 5.25 3.30228 5.25 2.75V1C5.25 0.447717 5.69772 3.14229e-06 6.25 0H8Z" fill="var(--fill-0, #8C8FFF)"/>
</svg>
