<svg preserveAspectRatio="none" width="100%" height="100%" overflow="visible" style="display: block;" viewBox="0 0 13 13" fill="none" xmlns="http://www.w3.org/2000/svg">
<g id="Filter icon">
<path id="Vector (Stroke)" d="M10.4194 1.66691C10.4194 1.58204 10.4195 1.51526 10.4186 1.45757C10.4184 1.44804 10.4171 1.43903 10.4169 1.43053C10.4089 1.43034 10.4004 1.4298 10.3915 1.42965C10.3354 1.42875 10.2705 1.42878 10.188 1.42878H1.62056C1.53805 1.42878 1.47314 1.42875 1.41706 1.42965C1.40781 1.4298 1.39903 1.43034 1.39077 1.43053C1.39059 1.43903 1.39007 1.44805 1.38992 1.45757C1.38904 1.51526 1.38908 1.58204 1.38908 1.66691V2.79912C1.39106 2.80121 1.3928 2.80378 1.39501 2.8061L4.96646 6.48009L5.10551 6.62751C5.13098 6.6565 5.15682 6.68764 5.18183 6.72084L5.2539 6.82639L5.30223 6.91623C5.33255 6.9774 5.3579 7.04103 5.37855 7.10638L5.40568 7.20582L5.42857 7.3323C5.44404 7.45764 5.44129 7.57571 5.44129 7.6594V11.4328C5.44129 11.8274 5.13034 12.1471 4.74684 12.1472C4.36322 12.1472 4.05155 11.8275 4.05155 11.4328V7.56869C4.05152 7.56595 4.05073 7.56334 4.0507 7.56084C4.04902 7.55907 4.04745 7.55665 4.04561 7.55473C4.02905 7.53739 4.00998 7.51719 3.98456 7.49106H3.98371L0.475016 3.88073C0.398323 3.80184 0.276307 3.68333 0.187571 3.53444C0.117793 3.41731 0.0661466 3.2894 0.0349448 3.15588V3.155C-0.00458694 2.98526 0.000179979 2.81296 0.000179979 2.70142V1.66691C0.000179441 1.51203 -0.000372562 1.35277 0.010355 1.21769C0.0217587 1.07424 0.0495232 0.896404 0.139239 0.715266C0.261333 0.468805 0.455889 0.267776 0.695476 0.142185C0.871462 0.0500074 1.0445 0.0221974 1.18388 0.0104723C1.31518 -0.000563319 1.47 4.53497e-06 1.62056 5.0876e-06H10.188C10.3385 4.53498e-06 10.4933 -0.000563422 10.6246 0.0104723C10.7293 0.0192758 10.8529 0.0371152 10.9825 0.0846152L11.113 0.142185L11.2012 0.192777C11.3722 0.300695 11.5161 0.448793 11.6209 0.62455L11.6693 0.715266L11.7261 0.849596C11.7723 0.982882 11.7896 1.11004 11.7982 1.21769C11.8089 1.35277 11.8083 1.51203 11.8083 1.66691V2.70142C11.8083 2.81302 11.8131 2.9853 11.7736 3.155V3.15588C11.7424 3.28935 11.6909 3.41716 11.6209 3.53444L11.6201 3.53357C11.5313 3.6826 11.41 3.80196 11.3335 3.88073L9.29001 5.98377C9.01879 6.26278 8.57854 6.26268 8.30727 5.98377C8.036 5.70472 8.036 5.25187 8.30727 4.97281L10.4135 2.8061C10.4156 2.80394 10.4167 2.80108 10.4186 2.79912C10.4186 2.79688 10.4194 2.79456 10.4194 2.79214V1.66691Z" fill="var(--fill-0, #1B1C23)"/>
<g id="Filter icon part">
<path id="Vector 18 (Stroke)" d="M9.20092 11.4328V7.86002C9.20092 7.53937 9.46121 7.27909 9.78186 7.27909C10.1025 7.27909 10.3628 7.53937 10.3628 7.86002V11.4328C10.3628 11.7535 10.1025 12.0138 9.78186 12.0138C9.46121 12.0138 9.20092 11.7535 9.20092 11.4328Z" fill="var(--fill-0, #1B1C23)"/>
<path id="Vector 19 (Stroke)" d="M7.99545 9.06549L11.5683 9.06549C11.8889 9.06549 12.1492 9.32578 12.1492 9.64643C12.1492 9.96707 11.8889 10.2274 11.5683 10.2274L7.99545 10.2274C7.6748 10.2274 7.41452 9.96707 7.41452 9.64643C7.41452 9.32578 7.6748 9.06549 7.99545 9.06549Z" fill="var(--fill-0, #1B1C23)"/>
</g>
</g>
</svg>
