<svg preserveAspectRatio="none" width="100%" height="100%" overflow="visible" style="display: block;" viewBox="0 0 339 43" fill="none" xmlns="http://www.w3.org/2000/svg">
<g id="top">
<g id="Group 1">
<rect id="Rectangle 15" x="301" y="3" width="38" height="38" rx="11" fill="var(--fill-0, #1B1C23)"/>
<path id="Vector (Stroke)" d="M321.834 29.5003C322.216 29.168 322.8 29.2038 323.138 29.5802C323.476 29.9566 323.439 30.5311 323.057 30.8634C322.243 31.5702 321.171 32 320 32C318.829 32 317.757 31.5702 316.943 30.8634C316.561 30.5311 316.524 29.9567 316.862 29.5802C317.2 29.2038 317.784 29.168 318.167 29.5003C318.656 29.9251 319.296 30.1818 320 30.1818C320.704 30.1818 321.344 29.9251 321.834 29.5003ZM324.621 18.3636C324.621 17.1581 324.134 16.002 323.267 15.1495C322.401 14.2971 321.226 13.8182 320 13.8182C318.775 13.8182 317.599 14.2971 316.733 15.1495C315.866 16.0019 315.379 17.1581 315.379 18.3636C315.379 21.3343 314.615 23.4255 313.715 24.8488C313.518 25.1598 313.354 25.4194 313.22 25.6352C313.411 25.6363 313.633 25.6364 313.891 25.6364H326.11C326.367 25.6364 326.589 25.6363 326.78 25.6352C326.646 25.4194 326.482 25.1598 326.285 24.8488L326.243 24.7816C325.361 23.36 324.621 21.2879 324.621 18.3636ZM326.469 18.3636C326.469 20.9702 327.124 22.7121 327.821 23.8352L327.854 23.8883L327.855 23.8883C328.19 24.4185 328.455 24.837 328.633 25.1406C328.721 25.2911 328.801 25.4361 328.861 25.565C328.89 25.6293 328.924 25.7082 328.949 25.794C328.971 25.8651 329.012 26.0171 328.997 26.202C328.986 26.3264 328.961 26.5389 328.837 26.7584C328.713 26.9779 328.543 27.1117 328.441 27.1861L328.441 27.1862C328.206 27.3576 327.936 27.3947 327.851 27.407C327.715 27.4268 327.56 27.4367 327.405 27.4427C327.09 27.4547 326.654 27.4545 326.11 27.4545H313.891C313.347 27.4545 312.91 27.4547 312.596 27.4427C312.44 27.4367 312.285 27.4268 312.149 27.407C312.064 27.3947 311.794 27.3576 311.559 27.1862L311.559 27.1861C311.457 27.1118 311.287 26.978 311.163 26.7585C311.04 26.539 311.014 26.3265 311.003 26.2021C310.988 26.0171 311.029 25.8651 311.051 25.7939C311.077 25.7082 311.11 25.6293 311.139 25.565C311.199 25.4361 311.279 25.2911 311.367 25.1406C311.545 24.8369 311.81 24.4185 312.146 23.8883L312.179 23.8352C312.876 22.7121 313.531 20.9702 313.531 18.3636C313.531 16.6759 314.213 15.0573 315.426 13.8639C316.639 12.6705 318.284 12 320 12C321.716 12 323.361 12.6705 324.574 13.8639C325.787 15.0573 326.469 16.6759 326.469 18.3636Z" fill="var(--fill-0, white)"/>
</g>
<path id="Vector" d="M31.5464 8.58177L17.9707 0.410126C17.0613 -0.136709 15.9387 -0.136709 15.0293 0.410126L8.37789 4.41436L2.29056 8.07757L1.45363 8.58177C0.55417 9.1242 0 10.1194 0 11.1969V31.8031C0 32.8806 0.55417 33.8758 1.45363 34.4182L15.0293 42.5899C15.9387 43.1367 17.0613 43.1367 17.9707 42.5899L24.6292 38.5827L30.7308 34.9107L31.5464 34.4197C32.4458 33.8787 33 32.8821 33 31.8046V11.1983C33 10.1208 32.4458 9.12567 31.5464 8.58324V8.58177ZM16.4602 3.31187L29.7261 11.36L27.0988 13.2798C25.9891 14.0913 24.5255 14.1648 23.3447 13.468L11.3434 6.39149L16.4588 3.31187H16.4602ZM16.4616 39.6881L3.27101 31.7384L6.14132 29.6084C7.27239 28.7691 8.77717 28.7029 9.9736 29.4394L21.5969 36.5982L16.4616 39.6896V39.6881ZM29.8952 31.6032L28.1361 32.6616L3.02661 17.6001V11.3968L4.80563 10.3266L29.8952 25.3778V31.6047V31.6032Z" fill="var(--fill-0, #1B1C23)"/>
</g>
</svg>
