<svg preserveAspectRatio="none" width="100%" height="100%" overflow="visible" style="display: block;" viewBox="0 0 10 12" fill="none" xmlns="http://www.w3.org/2000/svg">
<g id="Group 22">
<path id="Union" d="M7.28613 6.55566C8.78451 6.5558 10 7.77109 10 9.26953C9.99963 10.7676 8.7843 11.9823 7.28613 11.9824H2.71387C1.21558 11.9824 0.000373813 10.7677 0 9.26953C0 7.77102 1.21536 6.55566 2.71387 6.55566H7.28613ZM2.71387 7.91797C1.96742 7.91797 1.3623 8.52308 1.3623 9.26953L1.36914 9.40723C1.43844 10.0887 2.01416 10.6201 2.71387 10.6201H7.28613L7.4248 10.6143C8.10598 10.5449 8.63735 9.9689 8.6377 9.26953L8.63086 9.13086C8.56624 8.4949 8.06078 7.98857 7.4248 7.92383L7.28613 7.91797H2.71387ZM5.11816 0.00390625C6.64302 0.0813416 7.85635 1.3426 7.85645 2.88672L7.85254 3.03516C7.77775 4.51098 6.59391 5.69459 5.11816 5.76953L4.96973 5.77344C3.42548 5.77338 2.16418 4.56021 2.08691 3.03516L2.08301 2.88672C2.0831 1.29275 3.37575 5.98797e-05 4.96973 0L5.11816 0.00390625ZM4.96973 1.35059C4.12114 1.35065 3.43369 2.03814 3.43359 2.88672L3.44141 3.04395C3.52013 3.81873 4.17416 4.4228 4.96973 4.42285L5.12695 4.41504C5.90166 4.33616 6.50586 3.68218 6.50586 2.88672L6.49805 2.72949C6.42446 2.0066 5.84989 1.43201 5.12695 1.3584L4.96973 1.35059Z" fill="var(--fill-0, #8C8FFF)"/>
</g>
</svg>
