<svg preserveAspectRatio="none" width="100%" height="100%" overflow="visible" style="display: block;" viewBox="0 0 15 15" fill="none" xmlns="http://www.w3.org/2000/svg">
<g id="Group 186">
<path id="Union" d="M6.90126 0.415073C7.10859 -0.138352 7.89121 -0.138363 8.09852 0.415073L9.5829 4.3848C9.67285 4.62493 9.89798 4.78767 10.1542 4.79886L14.3876 4.98441C14.978 5.0105 15.2199 5.75486 14.7577 6.12308L11.4413 8.76175C11.2406 8.9215 11.155 9.18547 11.2235 9.43265L12.3554 13.5157C12.5134 14.0856 11.8798 14.5461 11.3866 14.2198L7.85243 11.8819C7.6385 11.7403 7.36129 11.7403 7.14735 11.8819L3.61317 14.2198C3.11997 14.5462 2.48639 14.0856 2.64442 13.5157L3.77626 9.43265C3.8448 9.18548 3.75915 8.9215 3.55849 8.76175L0.242079 6.12308C-0.220219 5.75485 0.0216934 5.01046 0.612196 4.98441L4.84559 4.79886C5.10181 4.78767 5.32693 4.62494 5.41688 4.3848L6.90126 0.415073Z" fill="var(--fill-0, #1B1C23)"/>
</g>
</svg>
