<svg preserveAspectRatio="none" width="100%" height="100%" overflow="visible" style="display: block;" viewBox="0 0 55 55" fill="none" xmlns="http://www.w3.org/2000/svg">
<g id="Group 20">
<rect id="Rectangle 32" x="0.5" y="0.5" width="54" height="54" rx="13.5" fill="var(--fill-0, black)" stroke="var(--stroke-0, #C0C8D9)"/>
<path id="Vector" fill-rule="evenodd" clip-rule="evenodd" d="M38.9993 17.9295V19.9354C38.7454 20.0647 38.4922 20.1948 38.2377 20.3234C37.8582 20.5148 37.5688 20.792 37.3935 21.187C37.2938 21.412 37.2269 21.6439 37.2262 21.891C37.2262 22.063 37.2311 22.2343 37.242 22.4056C37.2754 22.9169 37.2474 23.4268 37.1935 23.9346C37.1437 24.4025 37.0563 24.8643 36.9382 25.3205C36.7765 25.9439 36.5567 26.5467 36.2769 27.1261C35.9261 27.8541 35.4935 28.5291 34.9775 29.1491C34.7073 29.4746 34.4185 29.7822 34.1066 30.0657C34.0398 30.1269 34.0186 30.1833 34.0302 30.2714C34.0671 30.5439 34.0964 30.8178 34.1265 31.0916C34.1551 31.3538 34.1804 31.616 34.2084 31.8781C34.2384 32.1637 34.2698 32.4493 34.2998 32.7349C34.3278 32.997 34.3544 33.2591 34.3817 33.5213C34.407 33.7615 34.4336 34.0016 34.4581 34.2418C34.4841 34.4943 34.508 34.7469 34.5346 34.9987C34.566 35.2939 34.5994 35.5891 34.6308 35.8843C34.6622 36.1802 34.6908 36.4761 34.7216 36.7713C34.753 37.0685 34.7864 37.3665 34.8171 37.6638C34.8478 37.9617 34.8751 38.2603 34.9065 38.5583C34.942 38.8948 34.9823 39.2299 35.0178 39.5663C35.0696 40.057 35.1188 40.5476 35.17 41.0382C35.2157 41.4758 35.2614 41.9135 35.3078 42.3511C35.331 42.5678 35.3562 42.7839 35.3808 43H35.3378C35.3229 42.9904 35.3085 42.978 35.2915 42.9725C35.1638 42.9312 35.0335 42.8975 34.9079 42.85C34.6055 42.7365 34.3052 42.6167 34.0043 42.4991C33.3061 42.2266 32.6086 41.9534 31.9105 41.6809C31.2478 41.4221 30.5851 41.1648 29.9231 40.9061C29.283 40.657 28.6428 40.4079 28.0033 40.1574C27.9426 40.1334 27.8914 40.1341 27.8313 40.1602C27.7085 40.2132 27.5822 40.2592 27.4574 40.3074C26.8506 40.5435 26.2439 40.7795 25.6372 41.0155C24.8947 41.3052 24.1521 41.5963 23.4089 41.886C22.5995 42.2018 21.7901 42.517 20.9807 42.8321C20.9029 42.8624 20.8244 42.8913 20.7459 42.9202C20.6722 42.947 20.5985 42.9732 20.5248 43H20.4818C20.5064 42.7839 20.5316 42.5672 20.5548 42.3511C20.6019 41.9114 20.6476 41.471 20.694 41.0306C20.7534 40.4678 20.8135 39.9056 20.8729 39.3427C20.9295 38.8066 20.9868 38.27 21.0435 37.734C21.0981 37.2144 21.1513 36.6949 21.2059 36.1753C21.2714 35.5526 21.3383 34.9299 21.4038 34.3072C21.4591 33.7828 21.5116 33.2585 21.5669 32.7342C21.6174 32.2559 21.6693 31.777 21.7205 31.2988C21.7375 31.1398 21.7532 30.9809 21.7676 30.8219C21.771 30.7868 21.7805 30.7723 21.8188 30.7593C21.8925 30.7345 21.9614 30.6946 22.0317 30.6582C22.5388 30.3973 23.0452 30.1352 23.5529 29.8757C23.5761 29.864 23.6184 29.8702 23.643 29.884C24.1037 30.1366 24.5834 30.3451 25.0837 30.5054C25.5799 30.6643 26.0863 30.7717 26.6022 30.8322C27.0922 30.8894 27.5843 30.899 28.0757 30.8611C28.9936 30.7902 29.876 30.5714 30.7203 30.1957C31.4007 29.8923 32.0292 29.5035 32.6005 29.0239C33.4358 28.322 34.1039 27.4825 34.6015 26.5061C34.9604 25.8021 35.2109 25.0611 35.3515 24.2835C35.4573 23.6972 35.5078 23.1048 35.4716 22.5075C35.458 22.2811 35.4362 22.0547 35.417 21.8284C35.4163 21.8167 35.4116 21.8057 35.4068 21.7884C28.939 25.1113 22.4753 28.4287 16.0014 31.7509V31.6752C16.0014 31.0552 16.002 30.4352 16 29.8145C16 29.7602 16.0177 29.7347 16.0648 29.7106C19.5939 27.9016 23.1223 26.0905 26.6506 24.2801L30.6629 22.2226C31.3317 21.8792 31.9999 21.5366 32.6687 21.1926C33.8971 20.5608 35.1222 19.9244 36.35 19.292C37.2092 18.8495 38.0705 18.4105 38.9304 17.9694C38.9536 17.9577 38.9761 17.9433 38.9986 17.9295H38.9993ZM32.3623 31.3745C29.4529 32.9502 26.4896 33.0878 23.4519 31.7955C23.1544 34.6285 22.8561 37.4607 22.5579 40.3006C22.5886 40.2889 22.6083 40.282 22.6289 40.2744C23.282 40.0205 23.9351 39.7666 24.5882 39.5127C25.6727 39.0902 26.7571 38.6684 27.8409 38.2438C27.9071 38.2177 27.961 38.2218 28.0245 38.2472C28.8346 38.5658 29.646 38.8823 30.4568 39.1989C31.2662 39.5148 32.0756 39.8299 32.8857 40.1451C33.0236 40.1987 33.1614 40.2517 33.3061 40.3081C32.9908 37.3224 32.6769 34.3463 32.3637 31.3745H32.3623ZM28.0839 13.0199C29.9552 13.1424 31.6566 13.7486 33.186 14.8454C33.1976 14.8537 33.2078 14.862 33.2256 14.8757C33.2003 14.8902 33.1806 14.9026 33.1601 14.9129C32.5964 15.2026 32.0319 15.4916 31.4689 15.782C31.4239 15.8053 31.3898 15.8081 31.3434 15.782C30.594 15.367 29.7975 15.0815 28.9574 14.926C28.2934 14.8028 27.6245 14.7649 26.9503 14.8131C26.0009 14.8812 25.0926 15.1111 24.2258 15.5053C23.3168 15.9189 22.5108 16.4831 21.8133 17.2022C20.9036 18.1387 20.2579 19.2342 19.8744 20.4872C19.7249 20.9758 19.6294 21.476 19.5734 21.9839C19.5127 22.5302 19.5154 23.0759 19.5625 23.6229C19.57 23.7089 19.583 23.7949 19.5946 23.8872C19.6219 23.8741 19.6458 23.8637 19.6683 23.8521C21.4284 22.9492 23.1891 22.0479 24.9486 21.143C26.9899 20.0929 29.0284 19.0388 31.0697 17.9887C33.7013 16.6352 36.335 15.2845 38.9672 13.9323C38.9781 13.9268 38.9891 13.9227 39 13.9179V15.9237C37.4044 16.7426 35.8088 17.5607 34.2138 18.3802C32.4735 19.2734 30.7332 20.1659 28.9943 21.0604C24.6879 23.2741 20.3835 25.489 16.0792 27.7034C16.0566 27.7151 16.0328 27.7254 16.002 27.7399V27.6608C16.002 27.0428 16.0027 26.4256 16.0007 25.8077C16.0007 25.7499 16.0191 25.7237 16.0689 25.6982C16.3371 25.5634 16.6094 25.4354 16.8681 25.2833C17.4721 24.9289 17.7778 24.3922 17.7751 23.6862C17.7737 23.3814 17.7451 23.0766 17.7485 22.7717C17.7683 20.8829 18.2699 19.1351 19.2806 17.5428C20.3412 15.8721 21.7792 14.6397 23.5754 13.8339C24.3432 13.4892 25.1452 13.2552 25.9743 13.1224C26.6739 13.011 27.3775 12.9731 28.0845 13.0192L28.0839 13.0199Z" fill="var(--fill-0, white)"/>
</g>
</svg>
