<svg width="16" height="16" viewBox="0 0 16 16" fill="none" xmlns="http://www.w3.org/2000/svg">
<path d="M11.1768 6.32324C13.8375 6.32324 16 8.48015 16 11.1338C16 13.7874 13.8375 15.9443 11.1768 15.9443C8.51609 15.9443 6.35352 13.7874 6.35352 11.1338C6.35353 8.48019 8.5161 6.32331 11.1768 6.32324ZM11.5156 0C12.0433 0 12.4754 0.433259 12.4756 0.962891V5.06445C12.4756 5.41754 12.1877 5.70689 11.8359 5.70703C11.4841 5.70703 11.1963 5.41763 11.1963 5.06445V1.28418H1.2793V13.4844H5.07031C5.4221 13.4845 5.70995 13.7658 5.70996 14.127C5.70996 14.4801 5.42211 14.7694 5.07031 14.7695H0.959961C0.432154 14.7695 0 14.3354 0 13.8057V0.962891C0.000156354 0.433259 0.43225 0 0.959961 0H11.5156ZM11.1768 7.60645C9.22348 7.60651 7.63966 9.18569 7.63965 11.1338C7.63965 13.0819 9.22347 14.6611 11.1768 14.6611C13.1301 14.6611 14.7139 13.0819 14.7139 11.1338C14.7139 9.18565 13.1301 7.60645 11.1768 7.60645ZM12.5479 9.58398C12.7987 9.33707 13.2111 9.33707 13.4619 9.58398C13.7127 9.83087 13.7126 10.2365 13.4619 10.4834L11.1719 12.7383C11.1255 12.7839 11.072 12.818 11.0166 12.8467C10.9228 12.896 10.8206 12.9224 10.7168 12.9219C10.5504 12.9223 10.3836 12.8621 10.2578 12.7383C10.2352 12.716 10.2168 12.6906 10.1982 12.666L8.91309 11.3809C8.66571 11.1335 8.66571 10.7269 8.91309 10.4795C9.16047 10.2322 9.56712 10.2322 9.81445 10.4795L10.7188 11.3838L12.5479 9.58398Z" fill="#1B1C23"/>
</svg>
