<svg preserveAspectRatio="none" width="100%" height="100%" overflow="visible" style="display: block;" viewBox="0 0 19 17" fill="none" xmlns="http://www.w3.org/2000/svg">
<path id="Union" d="M6.8125 1.37695C7.87743 -0.459014 10.6245 -0.458939 11.6895 1.37695L18.1436 12.5068C19.1907 14.3129 17.817 16.5 15.7051 16.5H2.79688C0.685042 16.4998 -0.688589 14.3128 0.358398 12.5068L6.8125 1.37695ZM10.2314 2.17383C9.80971 1.44679 8.71364 1.44093 8.28125 2.15723L8.26953 2.17578L1.81641 13.3027C1.41568 13.9939 1.92704 14.8758 2.79688 14.876H15.7051C16.5751 14.876 17.0864 13.994 16.6855 13.3027L10.2314 2.17383ZM9.25098 10.7549C9.71289 10.7549 10.0876 11.129 10.0879 11.5908V11.8232C10.0877 12.2852 9.71296 12.6592 9.25098 12.6592C8.7891 12.659 8.41421 12.2851 8.41406 11.8232V11.5908C8.41432 11.129 8.78917 10.755 9.25098 10.7549ZM9.25098 5.60254C9.713 5.60254 10.0878 5.97745 10.0879 6.43945V9.0127C10.0879 9.47477 9.71305 9.84961 9.25098 9.84961C8.78901 9.84948 8.41406 9.47469 8.41406 9.0127V6.43945C8.41414 5.97753 8.78906 5.60267 9.25098 5.60254Z" fill="var(--fill-0, white)"/>
</svg>
