<svg preserveAspectRatio="none" width="100%" height="100%" overflow="visible" style="display: block;" viewBox="0 0 18 9" fill="none" xmlns="http://www.w3.org/2000/svg">
<path id="Subtract" d="M13.2949 0C13.5121 5.81472e-05 13.7138 0.0824994 13.8652 0.231445L17.6484 3.94629C17.7027 3.99941 17.7489 4.06031 17.7861 4.12793L17.8213 4.19824C17.8643 4.3042 17.8828 4.4024 17.8828 4.5C17.8828 4.59848 17.8634 4.69637 17.8242 4.79297C17.7799 4.89643 17.7217 4.98114 17.6494 5.05371L13.8652 8.76855C13.7125 8.91786 13.5115 8.99996 13.2949 9C13.0781 9 12.8762 8.91744 12.7246 8.76855C12.414 8.4614 12.4147 7.9662 12.7246 7.66113L15.1436 5.28418H0.803711C0.356852 5.28418 0.000195061 4.92816 0 4.5C0 4.07167 0.356724 3.71489 0.803711 3.71484H15.1445L12.7246 1.33887C12.4135 1.0332 12.4144 0.537155 12.7256 0.231445C12.8763 0.0828911 13.0777 8.27957e-07 13.2949 0ZM17.9014 5.12305C17.875 5.15705 17.8478 5.19014 17.8174 5.2207C17.8478 5.19014 17.875 5.15707 17.9014 5.12305ZM0.600586 3.49707C0.583465 3.50041 0.566615 3.50463 0.549805 3.50879C0.564398 3.50518 0.578922 3.50104 0.59375 3.49805L0.600586 3.49707ZM12.4297 0.216797C12.401 0.258869 12.3761 0.302698 12.3545 0.347656C12.3751 0.304767 12.3987 0.262936 12.4258 0.222656L12.4297 0.216797Z" fill="var(--fill-0, white)"/>
</svg>
